<svg width="22" height="29" viewBox="0 0 22 29" fill="none" xmlns="http://www.w3.org/2000/svg">
<path d="M11 0C8.60521 0 6.56563 1.5123 5.8151 3.625H3.66667C1.64427 3.625 0 5.25059 0 7.25V25.375C0 27.3744 1.64427 29 3.66667 29H18.3333C20.3557 29 22 27.3744 22 25.375V7.25C22 5.25059 20.3557 3.625 18.3333 3.625H16.1849C15.4344 1.5123 13.3948 0 11 0ZM11 3.625C11.4862 3.625 11.9525 3.81596 12.2964 4.15587C12.6402 4.49578 12.8333 4.9568 12.8333 5.4375C12.8333 5.9182 12.6402 6.37922 12.2964 6.71913C11.9525 7.05904 11.4862 7.25 11 7.25C10.5138 7.25 10.0475 7.05904 9.70364 6.71913C9.35982 6.37922 9.16667 5.9182 9.16667 5.4375C9.16667 4.9568 9.35982 4.49578 9.70364 4.15587C10.0475 3.81596 10.5138 3.625 11 3.625ZM17.474 15.4629L10.1406 22.7129C9.60208 23.2453 8.73125 23.2453 8.19844 22.7129L4.52604 19.0879C3.9875 18.5555 3.9875 17.6945 4.52604 17.1678C5.06458 16.641 5.93542 16.6354 6.46823 17.1678L9.16094 19.8299L15.526 13.5371C16.0646 13.0047 16.9354 13.0047 17.4682 13.5371C18.001 14.0695 18.0068 14.9305 17.4682 15.4572L17.474 15.4629Z" fill="#0165B9"/>
</svg>
