<svg width="22" height="27" viewBox="0 0 22 27" fill="none" xmlns="http://www.w3.org/2000/svg">
<path d="M11 0C8.60521 0 6.56563 1.40801 5.8151 3.375H3.66667C1.64427 3.375 0 4.88848 0 6.75V23.625C0 25.4865 1.64427 27 3.66667 27H18.3333C20.3557 27 22 25.4865 22 23.625V6.75C22 4.88848 20.3557 3.375 18.3333 3.375H16.1849C15.4344 1.40801 13.3948 0 11 0ZM11 3.375C11.4862 3.375 11.9525 3.55279 12.2964 3.86926C12.6402 4.18572 12.8333 4.61495 12.8333 5.0625C12.8333 5.51005 12.6402 5.93928 12.2964 6.25574C11.9525 6.57221 11.4862 6.75 11 6.75C10.5138 6.75 10.0475 6.57221 9.70364 6.25574C9.35982 5.93928 9.16667 5.51005 9.16667 5.0625C9.16667 4.61495 9.35982 4.18572 9.70364 3.86926C10.0475 3.55279 10.5138 3.375 11 3.375ZM6.41667 10.125H15.5833C16.0875 10.125 16.5 10.5047 16.5 10.9688C16.5 11.4328 16.0875 11.8125 15.5833 11.8125H6.41667C5.9125 11.8125 5.5 11.4328 5.5 10.9688C5.5 10.5047 5.9125 10.125 6.41667 10.125Z" fill="#0066AF"/>
</svg>
