<svg width="17" height="16" viewBox="0 0 17 16" fill="none" xmlns="http://www.w3.org/2000/svg">
<path d="M0.5 8C0.5 3.58172 4.08172 0 8.5 0C12.9183 0 16.5 3.58172 16.5 8C16.5 12.4183 12.9183 16 8.5 16C4.08172 16 0.5 12.4183 0.5 8Z" fill="#ED1010" fill-opacity="0.2"/>
<path d="M12.2632 5.36623C12.5756 5.05388 12.5756 4.54662 12.2632 4.23427C11.9509 3.92191 11.4436 3.92191 11.1313 4.23427L8.5 6.86803L5.86623 4.23676C5.55388 3.92441 5.04662 3.92441 4.73427 4.23676C4.42191 4.54912 4.42191 5.05638 4.73427 5.36873L7.36803 8L4.73676 10.6338C4.42441 10.9461 4.42441 11.4534 4.73676 11.7657C5.04912 12.0781 5.55638 12.0781 5.86873 11.7657L8.5 9.13197L11.1338 11.7632C11.4461 12.0756 11.9534 12.0756 12.2657 11.7632C12.5781 11.4509 12.5781 10.9436 12.2657 10.6313L9.63197 8L12.2632 5.36623Z" fill="#ED1010"/>
</svg>
