<svg width="23" height="26" viewBox="0 0 23 26" fill="none" xmlns="http://www.w3.org/2000/svg">
<path d="M3.8373 0C1.81667 0 0.173828 1.45742 0.173828 3.25V22.75C0.173828 24.5426 1.81667 26 3.8373 26H18.4912C20.5118 26 22.1547 24.5426 22.1547 22.75V8.125H14.8277C13.8145 8.125 12.996 7.39883 12.996 6.5V0H3.8373ZM14.8277 0V6.5H22.1547L14.8277 0ZM9.08638 12.7055L11.1643 15.341L13.2421 12.7055C13.6772 12.152 14.5358 12.0199 15.154 12.4059C15.7722 12.7918 15.9268 13.5535 15.4917 14.102L12.8414 17.4688L15.4975 20.8305C15.9325 21.384 15.7837 22.1406 15.1597 22.5266C14.5358 22.9125 13.6829 22.7805 13.2479 22.227L11.1643 19.5914L9.08638 22.227C8.65134 22.7805 7.79271 22.9125 7.1745 22.5266C6.55629 22.1406 6.40174 21.3789 6.83677 20.8305L9.48707 17.4688L6.83105 14.107C6.39601 13.5535 6.54484 12.7969 7.16878 12.4109C7.79271 12.025 8.64561 12.157 9.08065 12.7105L9.08638 12.7055Z" fill="white"/>
</svg>
