<svg width="28" height="27" viewBox="0 0 28 27" fill="none" xmlns="http://www.w3.org/2000/svg">
<path d="M27.4671 13.471C27.4671 14.42 26.7699 15.1634 25.9797 15.1634H24.4922L24.5248 23.6098C24.5248 23.7522 24.5155 23.8946 24.5015 24.0369V24.891C24.5015 26.0562 23.6695 27 22.6422 27H21.8985C21.8473 27 21.7962 27 21.7451 26.9947C21.68 27 21.6149 27 21.5499 27L20.0392 26.9947H18.9236C17.8963 26.9947 17.0643 26.051 17.0643 24.8858V23.6204V20.246C17.0643 19.3128 16.3995 18.5589 15.5768 18.5589H12.6019C11.7791 18.5589 11.1144 19.3128 11.1144 20.246V23.6204V24.8858C11.1144 26.051 10.2824 26.9947 9.25512 26.9947H8.13953H6.65672C6.587 26.9947 6.51728 26.9895 6.44755 26.9842C6.39177 26.9895 6.33599 26.9947 6.28021 26.9947H5.53649C4.50921 26.9947 3.67717 26.051 3.67717 24.8858V18.9807C3.67717 18.9332 3.67717 18.8805 3.68182 18.833V15.1582H2.19436C1.35767 15.1582 0.706909 14.42 0.706909 13.4657C0.706909 12.9912 0.846358 12.5694 1.17174 12.2004L13.0853 0.421793C13.4107 0.0527241 13.7826 0 14.1079 0C14.4333 0 14.8052 0.105448 15.0841 0.369069L26.9558 12.2056C27.3277 12.5747 27.5136 12.9965 27.4671 13.471Z" fill="#0066AF"/>
</svg>
