<svg width="17" height="16" viewBox="0 0 17 16" fill="none" xmlns="http://www.w3.org/2000/svg">
<path d="M1.02419 0C0.595161 0 0.25 0.411538 0.25 0.923077V2.76923C0.25 3.28077 0.595161 3.69231 1.02419 3.69231H2.57258C3.00161 3.69231 3.34677 3.28077 3.34677 2.76923V0.923077C3.34677 0.411538 3.00161 0 2.57258 0H1.02419ZM5.92742 0.615385C5.35645 0.615385 4.89516 1.16538 4.89516 1.84615C4.89516 2.52692 5.35645 3.07692 5.92742 3.07692H15.2177C15.7887 3.07692 16.25 2.52692 16.25 1.84615C16.25 1.16538 15.7887 0.615385 15.2177 0.615385H5.92742ZM5.92742 6.76923C5.35645 6.76923 4.89516 7.31923 4.89516 8C4.89516 8.68077 5.35645 9.23077 5.92742 9.23077H15.2177C15.7887 9.23077 16.25 8.68077 16.25 8C16.25 7.31923 15.7887 6.76923 15.2177 6.76923H5.92742ZM5.92742 12.9231C5.35645 12.9231 4.89516 13.4731 4.89516 14.1538C4.89516 14.8346 5.35645 15.3846 5.92742 15.3846H15.2177C15.7887 15.3846 16.25 14.8346 16.25 14.1538C16.25 13.4731 15.7887 12.9231 15.2177 12.9231H5.92742ZM0.25 7.07692V8.92308C0.25 9.43462 0.595161 9.84615 1.02419 9.84615H2.57258C3.00161 9.84615 3.34677 9.43462 3.34677 8.92308V7.07692C3.34677 6.56538 3.00161 6.15385 2.57258 6.15385H1.02419C0.595161 6.15385 0.25 6.56538 0.25 7.07692ZM1.02419 12.3077C0.595161 12.3077 0.25 12.7192 0.25 13.2308V15.0769C0.25 15.5885 0.595161 16 1.02419 16H2.57258C3.00161 16 3.34677 15.5885 3.34677 15.0769V13.2308C3.34677 12.7192 3.00161 12.3077 2.57258 12.3077H1.02419Z" fill="white"/>
</svg>
