<svg width="23" height="23" viewBox="0 0 23 23" fill="none" xmlns="http://www.w3.org/2000/svg">
<path d="M16.976 3.79397L22.4924 10.0984C22.8158 10.4681 23 10.9763 23 11.5C23 12.0237 22.8158 12.5319 22.4924 12.9016L16.976 19.206C16.6885 19.5346 16.3021 19.7143 15.8979 19.7143C15.0578 19.7143 14.375 18.9339 14.375 17.9739V14.7857H8.625C7.82988 14.7857 7.1875 14.0516 7.1875 13.1429V9.85714C7.1875 8.94844 7.82988 8.21429 8.625 8.21429H14.375V5.02612C14.375 4.06607 15.0578 3.28571 15.8979 3.28571C16.3021 3.28571 16.6885 3.47054 16.976 3.79397ZM7.1875 3.28571H4.3125C3.51738 3.28571 2.875 4.01987 2.875 4.92857V18.0714C2.875 18.9801 3.51738 19.7143 4.3125 19.7143H7.1875C7.98262 19.7143 8.625 20.4484 8.625 21.3571C8.625 22.2658 7.98262 23 7.1875 23H4.3125C1.93164 23 0 20.7924 0 18.0714V4.92857C0 2.20759 1.93164 0 4.3125 0H7.1875C7.98262 0 8.625 0.734152 8.625 1.64286C8.625 2.55156 7.98262 3.28571 7.1875 3.28571Z" fill="white"/>
</svg>
