<svg width="26" height="25" viewBox="0 0 26 25" fill="none" xmlns="http://www.w3.org/2000/svg">
<path d="M0.332031 3.125C0.332031 1.40137 1.77734 0 3.55503 0H11.6125V6.25C11.6125 7.11426 12.3327 7.8125 13.224 7.8125H19.67V14.8438H9.19528C7.41759 14.8438 5.97228 16.2451 5.97228 17.9688V25H3.55503C1.77734 25 0.332031 23.5986 0.332031 21.875V3.125ZM19.67 6.25H13.224V0L19.67 6.25ZM9.19528 17.1875H10.8068C12.3629 17.1875 13.6269 18.4131 13.6269 19.9219C13.6269 21.4307 12.3629 22.6562 10.8068 22.6562H10.001V24.2188C10.001 24.6484 9.63844 25 9.19528 25C8.75212 25 8.38953 24.6484 8.38953 24.2188V21.875V17.9688C8.38953 17.5391 8.75212 17.1875 9.19528 17.1875ZM10.8068 21.0938C11.4766 21.0938 12.0154 20.5713 12.0154 19.9219C12.0154 19.2725 11.4766 18.75 10.8068 18.75H10.001V21.0938H10.8068ZM15.6413 17.1875H17.2528C18.5873 17.1875 19.67 18.2373 19.67 19.5312V22.6562C19.67 23.9502 18.5873 25 17.2528 25H15.6413C15.1981 25 14.8355 24.6484 14.8355 24.2188V17.9688C14.8355 17.5391 15.1981 17.1875 15.6413 17.1875ZM17.2528 23.4375C17.6959 23.4375 18.0585 23.0859 18.0585 22.6562V19.5312C18.0585 19.1016 17.6959 18.75 17.2528 18.75H16.447V23.4375H17.2528ZM21.2815 17.9688C21.2815 17.5391 21.6441 17.1875 22.0873 17.1875H24.5045C24.9477 17.1875 25.3103 17.5391 25.3103 17.9688C25.3103 18.3984 24.9477 18.75 24.5045 18.75H22.893V20.3125H24.5045C24.9477 20.3125 25.3103 20.6641 25.3103 21.0938C25.3103 21.5234 24.9477 21.875 24.5045 21.875H22.893V24.2188C22.893 24.6484 22.5304 25 22.0873 25C21.6441 25 21.2815 24.6484 21.2815 24.2188V21.0938V17.9688Z" fill="#FFFCFC"/>
</svg>
