<svg width="28" height="27" viewBox="0 0 28 27" fill="none" xmlns="http://www.w3.org/2000/svg">
<path fill-rule="evenodd" clip-rule="evenodd" d="M14.2544 27C22.8944 27 27.7544 22.14 27.7544 13.5C27.7544 4.86 22.8944 0 14.2544 0C5.61439 0 0.754395 4.86 0.754395 13.5C0.754395 22.14 5.61439 27 14.2544 27ZM21.2678 22.2341C20.7768 21.3192 20.1078 20.5026 19.2922 19.8361C17.8705 18.674 16.0907 18.0392 14.2545 18.0392C12.4184 18.0392 10.6386 18.674 9.21693 19.8361C8.40135 20.5026 7.73237 21.3192 7.2412 22.2341C8.84653 23.388 11.1295 24.1071 14.2546 24.1071C17.3797 24.1071 19.6626 23.388 21.2678 22.2341ZM18.7964 10.1612C18.7964 13.0689 17.1608 14.7045 14.2531 14.7045C11.3454 14.7045 9.70981 13.0689 9.70981 10.1612C9.70981 7.25355 11.3454 5.61797 14.2531 5.61797C17.1608 5.61797 18.7964 7.25355 18.7964 10.1612Z" fill="#0165B9"/>
</svg>
