<svg width="21" height="20" viewBox="0 0 21 20" fill="none" xmlns="http://www.w3.org/2000/svg">
<path d="M7.41176 0H12.3529V5H7.41176V0ZM0 15H4.94118V20H0V15ZM0 7.5H4.94118V12.5H0V7.5ZM0 0H4.94118V5H0V0ZM14.8235 0H19.7647V5H14.8235V0ZM8.64706 17.325V20H11.2412L18.6282 12.5375L16.0094 9.8875L8.64706 17.325ZM12.3529 10.0375V7.5H7.41176V12.5H9.91941L12.3529 10.0375ZM20.8147 9.45L19.0729 7.6875C18.8259 7.4375 18.4429 7.4375 18.1959 7.6875L16.8865 9.0125L19.5053 11.6625L20.8147 10.3375C21.0618 10.0875 21.0618 9.7 20.8147 9.45Z" fill="#0165B9"/>
</svg>
