<svg width="20" height="20" viewBox="0 0 20 20" fill="none" xmlns="http://www.w3.org/2000/svg">
<path d="M16.1515 8.12381C16.1515 9.91652 15.5794 11.5725 14.6156 12.9161L19.4766 17.8646C19.9565 18.3528 19.9565 19.1456 19.4766 19.6338C18.9966 20.1221 18.2172 20.1221 17.7372 19.6338L12.8763 14.6853C11.5555 15.6696 9.92747 16.2476 8.16509 16.2476C3.75338 16.2476 0.178711 12.6114 0.178711 8.12381C0.178711 3.63619 3.75338 0 8.16509 0C12.5768 0 16.1515 3.63619 16.1515 8.12381ZM8.16509 13.748C8.89118 13.748 9.61015 13.6025 10.281 13.3199C10.9518 13.0372 11.5613 12.623 12.0747 12.1007C12.5881 11.5784 12.9954 10.9584 13.2733 10.2761C13.5511 9.59373 13.6941 8.86239 13.6941 8.12381C13.6941 7.38523 13.5511 6.65389 13.2733 5.97153C12.9954 5.28917 12.5881 4.66917 12.0747 4.14692C11.5613 3.62466 10.9518 3.21039 10.281 2.92775C9.61015 2.64511 8.89118 2.49963 8.16509 2.49963C7.43901 2.49963 6.72004 2.64511 6.04922 2.92775C5.37841 3.21039 4.76889 3.62466 4.25548 4.14692C3.74206 4.66917 3.33479 5.28917 3.05693 5.97153C2.77907 6.65389 2.63606 7.38523 2.63606 8.12381C2.63606 8.86239 2.77907 9.59373 3.05693 10.2761C3.33479 10.9584 3.74206 11.5784 4.25548 12.1007C4.76889 12.623 5.37841 13.0372 6.04922 13.3199C6.72004 13.6025 7.43901 13.748 8.16509 13.748Z" fill="black" fill-opacity="0.8"/>
</svg>
