<svg width="88" height="88" viewBox="0 0 88 88" fill="none" xmlns="http://www.w3.org/2000/svg">
<rect x="4" y="4" width="80" height="80" rx="40" fill="#D1FADF"/>
<rect x="4" y="4" width="80" height="80" rx="40" stroke="#ECFDF3" stroke-width="8"/>
<path d="M62.25 41.775V43.5C62.2477 47.5433 60.9384 51.4775 58.5175 54.7159C56.0966 57.9543 52.6937 60.3234 48.8163 61.4698C44.9389 62.6162 40.7949 62.4786 37.0021 61.0773C33.2094 59.6761 29.9712 57.0864 27.7706 53.6945C25.5699 50.3026 24.5246 46.2901 24.7906 42.2556C25.0567 38.221 26.6198 34.3806 29.2468 31.307C31.8738 28.2334 35.424 26.0913 39.3679 25.2003C43.3117 24.3092 47.438 24.7169 51.1313 26.3625M62.25 28.5L43.5 47.2687L37.875 41.6437" stroke="#039855" stroke-width="2" stroke-linecap="round" stroke-linejoin="round"/>
</svg>
