<svg width="15" height="16" viewBox="0 0 15 16" fill="none" xmlns="http://www.w3.org/2000/svg">
<path d="M4.475 0.553125L4.25 1H1.25C0.696875 1 0.25 1.44687 0.25 2C0.25 2.55313 0.696875 3 1.25 3H13.25C13.8031 3 14.25 2.55313 14.25 2C14.25 1.44687 13.8031 1 13.25 1H10.25L10.025 0.553125C9.85625 0.2125 9.50937 0 9.13125 0H5.36875C4.99062 0 4.64375 0.2125 4.475 0.553125ZM13.25 4H1.25L1.9125 14.5938C1.9625 15.3844 2.61875 16 3.40937 16H11.0906C11.8812 16 12.5375 15.3844 12.5875 14.5938L13.25 4Z" fill="white"/>
</svg>
