<svg width="29" height="27" viewBox="0 0 29 27" fill="none" xmlns="http://www.w3.org/2000/svg">
<path d="M6.525 0C7.48641 0 8.40844 0.444474 9.08826 1.23564C9.76808 2.02681 10.15 3.09987 10.15 4.21875C10.15 5.33763 9.76808 6.41069 9.08826 7.20186C8.40844 7.99303 7.48641 8.4375 6.525 8.4375C5.56359 8.4375 4.64156 7.99303 3.96174 7.20186C3.28192 6.41069 2.9 5.33763 2.9 4.21875C2.9 3.09987 3.28192 2.02681 3.96174 1.23564C4.64156 0.444474 5.56359 0 6.525 0ZM23.2 0C24.1614 0 25.0834 0.444474 25.7633 1.23564C26.4431 2.02681 26.825 3.09987 26.825 4.21875C26.825 5.33763 26.4431 6.41069 25.7633 7.20186C25.0834 7.99303 24.1614 8.4375 23.2 8.4375C22.2386 8.4375 21.3166 7.99303 20.6367 7.20186C19.9569 6.41069 19.575 5.33763 19.575 4.21875C19.575 3.09987 19.9569 2.02681 20.6367 1.23564C21.3166 0.444474 22.2386 0 23.2 0ZM0 15.7518C0 12.6457 2.16594 10.125 4.83484 10.125H6.76969C7.49016 10.125 8.17438 10.3096 8.79063 10.6365C8.73172 11.0162 8.70453 11.4117 8.70453 11.8125C8.70453 13.827 9.46578 15.6357 10.6666 16.875C10.6575 16.875 10.6484 16.875 10.6348 16.875H0.965156C0.435 16.875 0 16.3688 0 15.7518ZM18.3652 16.875C18.3561 16.875 18.347 16.875 18.3334 16.875C19.5388 15.6357 20.2955 13.827 20.2955 11.8125C20.2955 11.4117 20.2638 11.0215 20.2094 10.6365C20.8256 10.3043 21.5098 10.125 22.2303 10.125H24.1652C26.8341 10.125 29 12.6457 29 15.7518C29 16.374 28.565 16.875 28.0348 16.875H18.3697H18.3652ZM10.15 11.8125C10.15 10.4698 10.6083 9.18217 11.4241 8.23277C12.2399 7.28337 13.3463 6.75 14.5 6.75C15.6537 6.75 16.7601 7.28337 17.5759 8.23277C18.3917 9.18217 18.85 10.4698 18.85 11.8125C18.85 13.1552 18.3917 14.4428 17.5759 15.3922C16.7601 16.3416 15.6537 16.875 14.5 16.875C13.3463 16.875 12.2399 16.3416 11.4241 15.3922C10.6083 14.4428 10.15 13.1552 10.15 11.8125ZM5.8 25.592C5.8 21.7107 8.50516 18.5625 11.8402 18.5625H17.1553C20.4948 18.5625 23.2 21.7107 23.2 25.592C23.2 26.3672 22.6608 27 21.9902 27H7.00531C6.33922 27 5.79547 26.3725 5.79547 25.592H5.8Z" fill="#0165B9"/>
</svg>
