<svg width="9" height="8" viewBox="0 0 9 8" fill="none" xmlns="http://www.w3.org/2000/svg">
<path d="M8.26324 1.36623C8.57559 1.05388 8.57559 0.546619 8.26324 0.234265C7.95088 -0.0780884 7.44362 -0.0780884 7.13127 0.234265L4.5 2.86803L1.86623 0.236764C1.55388 -0.0755896 1.04662 -0.0755896 0.734265 0.236764C0.421912 0.549118 0.421912 1.05638 0.734265 1.36873L3.36803 4L0.736764 6.63376C0.42441 6.94612 0.42441 7.45338 0.736764 7.76573C1.04912 8.07809 1.55638 8.07809 1.86873 7.76573L4.5 5.13197L7.13376 7.76323C7.44612 8.07559 7.95338 8.07559 8.26573 7.76323C8.57809 7.45088 8.57809 6.94362 8.26573 6.63127L5.63197 4L8.26324 1.36623Z" fill="white"/>
</svg>
